<svg xmlns="http://www.w3.org/2000/svg" viewBox="-34 -8 73 65">
	<path d="M 3 2 L 35 34 C 36 34 37 34 37 32 L 5 0 Z M 0 0 l -32 32 C -32 34 -31 34 -30 34 L -30 34 L 2 2 L 8 -4 C 8 -5 7 -6 6 -6 Z M -25 33 V 55 H 30 V 33 C 29 32 28 32 27 33 L 27 53 L -22 53 L -22 33 C -23 32 -24 32 -25 33 Z Z Z Z M -23 29 L 28 29 L 2.5 4 L -23 29 M -5 32 C 0 29 6 29 11 33 L 10 50 C 6 50 0 50 -5 50 L -6 33 M -2 13 C 1 12 4 12 7 13 C 8 16 8 18 7 20 C 4 21 1 21 -2 20 C -3 18 -3 16 -2 13 M -20 32 L -20 52 L 25 52 L 25 32 C 21 31 18 31 14 32 L 14 51 L -9 51 L -9 32 L -20 32 C -16 31 -13 31 -9 32 M 0 -1 L 2 -3 L -1 -6 C -2 -6 -3 -5 -3 -4 L 0 -1" stroke="#FFF" stroke-width="2" fill="#ddd5"/>
</svg>